<svg width="200" height="275" viewBox="0 0 587 275" fill="none" xmlns="http://www.w3.org/2000/svg">
<rect x="146.484" y="129.4" width="25.8353" height="45.7826" transform="rotate(89.0845 146.484 129.4)" fill="#ffffff"/>
<rect x="146.89" width="25.8353" height="289.603" transform="rotate(24.5522 146.89 0)" fill="#ffffff"/>
<path fill-rule="evenodd" clip-rule="evenodd" d="M122 264.094C189.379 264.094 244 209.473 244 142.094C244 74.7154 189.379 20.0942 122 20.0942C54.6213 20.0942 0 74.7154 0 142.094C0 176.892 14.5687 208.287 37.9395 230.513L47.6376 209.233C31.5876 191.467 21.8143 167.922 21.8143 142.094C21.8143 86.7631 66.669 41.9085 122 41.9085C177.331 41.9085 222.186 86.7631 222.186 142.094C222.186 197.425 177.331 242.28 122 242.28C93.7436 242.28 68.2193 230.582 50.0058 211.765L40.4171 232.805C62.0308 252.257 90.633 264.094 122 264.094Z" fill="#ffffff"/>
<path fill-rule="evenodd" clip-rule="evenodd" d="M172.953 0H147.118V121.657L172.953 138.735V0ZM147.118 159.397L152.715 155.705L147.118 159.442V159.397ZM147.118 223.906V162.893L172.953 145.648V223.906H147.118Z" fill="#ffffff"/>
<path d="M356.091 185.455C349.364 185.455 343.561 183.97 338.682 181C333.833 178 330.091 173.818 327.455 168.455C324.848 163.061 323.545 156.788 323.545 149.636C323.545 142.485 324.848 136.182 327.455 130.727C330.091 125.242 333.758 120.97 338.455 117.909C343.182 114.818 348.697 113.273 355 113.273C358.636 113.273 362.227 113.879 365.773 115.091C369.318 116.303 372.545 118.273 375.455 121C378.364 123.697 380.682 127.273 382.409 131.727C384.136 136.182 385 141.667 385 148.182V152.727H331.182V143.455H374.091C374.091 139.515 373.303 136 371.727 132.909C370.182 129.818 367.97 127.379 365.091 125.591C362.242 123.803 358.879 122.909 355 122.909C350.727 122.909 347.03 123.97 343.909 126.091C340.818 128.182 338.439 130.909 336.773 134.273C335.106 137.636 334.273 141.242 334.273 145.091V151.273C334.273 156.545 335.182 161.015 337 164.682C338.848 168.318 341.409 171.091 344.682 173C347.955 174.879 351.758 175.818 356.091 175.818C358.909 175.818 361.455 175.424 363.727 174.636C366.03 173.818 368.015 172.606 369.682 171C371.348 169.364 372.636 167.333 373.545 164.909L383.909 167.818C382.818 171.333 380.985 174.424 378.409 177.091C375.833 179.727 372.652 181.788 368.864 183.273C365.076 184.727 360.818 185.455 356.091 185.455ZM401.318 184V114.182H411.682V124.727H412.409C413.682 121.273 415.985 118.47 419.318 116.318C422.652 114.167 426.409 113.091 430.591 113.091C431.379 113.091 432.364 113.106 433.545 113.136C434.727 113.167 435.621 113.212 436.227 113.273V124.182C435.864 124.091 435.03 123.955 433.727 123.773C432.455 123.561 431.106 123.455 429.682 123.455C426.288 123.455 423.258 124.167 420.591 125.591C417.955 126.985 415.864 128.924 414.318 131.409C412.803 133.864 412.045 136.667 412.045 139.818V184H401.318ZM475 211.636C469.818 211.636 465.364 210.97 461.636 209.636C457.909 208.333 454.803 206.606 452.318 204.455C449.864 202.333 447.909 200.061 446.455 197.636L455 191.636C455.97 192.909 457.197 194.364 458.682 196C460.167 197.667 462.197 199.106 464.773 200.318C467.379 201.561 470.788 202.182 475 202.182C480.636 202.182 485.288 200.818 488.955 198.091C492.621 195.364 494.455 191.091 494.455 185.273V171.091H493.545C492.758 172.364 491.636 173.939 490.182 175.818C488.758 177.667 486.697 179.318 484 180.773C481.333 182.197 477.727 182.909 473.182 182.909C467.545 182.909 462.485 181.576 458 178.909C453.545 176.242 450.015 172.364 447.409 167.273C444.833 162.182 443.545 156 443.545 148.727C443.545 141.576 444.803 135.348 447.318 130.045C449.833 124.712 453.333 120.591 457.818 117.682C462.303 114.742 467.485 113.273 473.364 113.273C477.909 113.273 481.515 114.03 484.182 115.545C486.879 117.03 488.939 118.727 490.364 120.636C491.818 122.515 492.939 124.061 493.727 125.273H494.818V114.182H505.182V186C505.182 192 503.818 196.879 501.091 200.636C498.394 204.424 494.758 207.197 490.182 208.955C485.636 210.742 480.576 211.636 475 211.636ZM474.636 173.273C478.939 173.273 482.576 172.288 485.545 170.318C488.515 168.348 490.773 165.515 492.318 161.818C493.864 158.121 494.636 153.697 494.636 148.545C494.636 143.515 493.879 139.076 492.364 135.227C490.848 131.379 488.606 128.364 485.636 126.182C482.667 124 479 122.909 474.636 122.909C470.091 122.909 466.303 124.061 463.273 126.364C460.273 128.667 458.015 131.758 456.5 135.636C455.015 139.515 454.273 143.818 454.273 148.545C454.273 153.394 455.03 157.682 456.545 161.409C458.091 165.106 460.364 168.015 463.364 170.136C466.394 172.227 470.152 173.273 474.636 173.273ZM531.727 210.182C529.909 210.182 528.288 210.03 526.864 209.727C525.439 209.455 524.455 209.182 523.909 208.909L526.636 199.455C529.242 200.121 531.545 200.364 533.545 200.182C535.545 200 537.318 199.106 538.864 197.5C540.439 195.924 541.879 193.364 543.182 189.818L545.182 184.364L519.364 114.182H531L550.273 169.818H551L570.273 114.182H581.909L552.273 194.182C550.939 197.788 549.288 200.773 547.318 203.136C545.348 205.53 543.061 207.303 540.455 208.455C537.879 209.606 534.97 210.182 531.727 210.182Z" fill="#ffffff"/>
<line x1="262.5" y1="48.2319" x2="262.5" y2="225.628" stroke="#ffffff" stroke-width="25"/>
<line x1="299.5" y1="48" x2="299.5" y2="225.397" stroke="#ffffff" stroke-width="25"/>
</svg>
